<?xml version="1.0" encoding="utf-8"?>
<!-- Generator: Adobe Illustrator 16.0.0, SVG Export Plug-In . SVG Version: 6.00 Build 0)  -->
<!DOCTYPE svg PUBLIC "-//W3C//DTD SVG 1.1//EN" "http://www.w3.org/Graphics/SVG/1.1/DTD/svg11.dtd">
<svg version="1.1" id="Layer_1" xmlns="http://www.w3.org/2000/svg" xmlns:xlink="http://www.w3.org/1999/xlink" x="0px" y="0px"
	 width="1417.32px" height="1417.32px" viewBox="0 0 1417.32 1417.32" enable-background="new 0 0 1417.32 1417.32"
	 xml:space="preserve">
<g>
	<g>
		<path fill="#FFD44D" stroke="#FEE06E" stroke-miterlimit="10" d="M474.308,1093.776c-21.173,0-39.32-7.56-54.4-22.64
			c-15.083-15.084-22.622-33.21-22.622-54.383v-462.14c0-21.172,7.539-39.302,22.622-54.382
			c15.081-15.083,33.227-22.644,54.4-22.644h77.022c0-42.347,15.081-78.639,45.245-108.8
			c30.181-30.164,66.435-45.244,108.801-45.244c42.35,0,78.604,15.08,108.803,45.244c30.165,30.161,45.245,66.453,45.245,108.8
			h77.022c21.174,0,39.338,7.561,54.383,22.644c15.118,15.08,22.641,33.21,22.641,54.382v462.14
			c0,21.173-7.522,39.299-22.641,54.383c-15.045,15.08-33.209,22.64-54.383,22.64H474.308z M474.308,1016.754h462.139v-462.14
			h-77.022v77.023c0,10.906-3.687,20.045-11.058,27.452c-7.373,7.374-16.549,11.058-27.455,11.058
			c-10.907,0-20.084-3.684-27.454-11.058c-7.372-7.407-11.056-16.546-11.056-27.452v-77.023H628.353v77.023
			c0,10.906-3.684,20.045-11.075,27.452c-7.373,7.374-16.529,11.058-27.436,11.058s-20.064-3.684-27.435-11.058
			c-7.391-7.407-11.078-16.546-11.078-27.452v-77.023h-77.022V1016.754z M628.353,477.589h154.048
			c0-21.172-7.524-39.298-22.645-54.379c-15.041-15.083-33.205-22.642-54.381-22.642c-21.174,0-39.32,7.559-54.4,22.642
			C635.895,438.291,628.353,456.417,628.353,477.589z M474.308,1016.754v-462.14V1016.754z"/>
	</g>
	<g>
		<path fill="#FFD44D" stroke="#FEE06E" stroke-miterlimit="10" d="M1036.279,1067.69c-9.869,0-18.329-3.523-25.357-10.552
			c-7.031-7.032-10.546-15.479-10.546-25.35V816.37c0-9.869,3.515-18.32,10.546-25.351c7.028-7.029,15.488-10.554,25.357-10.554
			h35.902c0-19.738,7.03-36.657,21.091-50.715c14.068-14.061,30.968-21.091,50.715-21.091c19.741,0,36.641,7.03,50.718,21.091
			c14.061,14.058,21.089,30.977,21.089,50.715h35.904c9.868,0,18.336,3.524,25.35,10.554c7.047,7.03,10.553,15.481,10.553,25.351
			v215.419c0,9.87-3.506,18.317-10.553,25.35c-7.014,7.028-15.481,10.552-25.35,10.552H1036.279z M1036.279,1031.789h215.419V816.37
			h-35.904v35.901c0,5.085-1.717,9.346-5.153,12.798c-3.437,3.438-7.714,5.153-12.799,5.153c-5.083,0-9.36-1.716-12.797-5.153
			c-3.436-3.452-5.154-7.713-5.154-12.798V816.37h-71.807v35.901c0,5.085-1.717,9.346-5.163,12.798
			c-3.435,3.438-7.702,5.153-12.787,5.153c-5.083,0-9.353-1.716-12.787-5.153c-3.446-3.452-5.165-7.713-5.165-12.798V816.37h-35.902
			V1031.789z M1108.084,780.466h71.807c0-9.87-3.505-18.317-10.554-25.349c-7.012-7.029-15.479-10.555-25.35-10.555
			c-9.869,0-18.328,3.525-25.357,10.555C1111.601,762.148,1108.084,770.596,1108.084,780.466z M1036.279,1031.789V816.37V1031.789z"
			/>
	</g>
	<g>
		<path fill="#FFD44D" stroke="#FEE06E" stroke-miterlimit="10" d="M231.859,1057.237c-9.869,0-18.329-3.524-25.357-10.553
			c-7.031-7.031-10.545-15.479-10.545-25.35V805.916c0-9.869,3.515-18.32,10.545-25.35c7.029-7.03,15.488-10.555,25.357-10.555
			h35.903c0-19.738,7.03-36.657,21.09-50.715c14.069-14.061,30.968-21.091,50.715-21.091c19.742,0,36.641,7.03,50.718,21.091
			c14.06,14.058,21.089,30.977,21.089,50.715h35.904c9.869,0,18.336,3.524,25.35,10.555c7.047,7.029,10.552,15.48,10.552,25.35
			v215.419c0,9.87-3.505,18.318-10.552,25.35c-7.014,7.028-15.481,10.553-25.35,10.553H231.859z M231.859,1021.335h215.419V805.916
			h-35.904v35.902c0,5.085-1.717,9.346-5.154,12.797c-3.436,3.438-7.713,5.154-12.798,5.154c-5.083,0-9.361-1.717-12.797-5.154
			c-3.435-3.451-5.154-7.712-5.154-12.797v-35.902h-71.807v35.902c0,5.085-1.716,9.346-5.162,12.797
			c-3.437,3.438-7.704,5.154-12.788,5.154c-5.083,0-9.353-1.717-12.789-5.154c-3.445-3.451-5.164-7.712-5.164-12.797v-35.902
			h-35.903V1021.335z M303.664,770.012h71.807c0-9.869-3.505-18.317-10.554-25.348c-7.012-7.03-15.48-10.556-25.35-10.556
			c-9.869,0-18.328,3.525-25.357,10.556C307.18,751.694,303.664,760.143,303.664,770.012z M231.859,1021.335V805.916V1021.335z"/>
	</g>
</g>
</svg>
