<?xml version="1.0" encoding="utf-8"?>
<!-- Generator: Adobe Illustrator 16.0.0, SVG Export Plug-In . SVG Version: 6.00 Build 0)  -->
<!DOCTYPE svg PUBLIC "-//W3C//DTD SVG 1.1//EN" "http://www.w3.org/Graphics/SVG/1.1/DTD/svg11.dtd">
<svg version="1.1" id="Layer_1" xmlns="http://www.w3.org/2000/svg" xmlns:xlink="http://www.w3.org/1999/xlink" x="0px" y="0px"
	 width="1417.32px" height="1417.32px" viewBox="0 0 1417.32 1417.32" enable-background="new 0 0 1417.32 1417.32"
	 xml:space="preserve">
<g>
	<path fill="#55C8F3" stroke="#010101" stroke-width="3" stroke-miterlimit="10" d="M1032.463,772.847
		c-3.741,19.909-9.249,39.294-16.446,58.195c-7.244,18.865-16.332,37.043-27.31,54.578c-10.98,17.494-23.328,33.784-37.042,48.907
		c0,0-66.924,111.532-284.188,105.012c-83.052-10.296-151.867-46.696-206.444-109.155c-54.558-62.461-81.846-135.217-81.846-218.27
		c0-12.346,0.865-24.692,2.574-37.081c1.71-12.345,3.601-24.693,5.672-37.041c0,0,108.746-321.512,444.779-230.655
		c62.463,24.734,112.373,64.874,149.817,120.496c37.404,55.581,56.104,116.997,56.104,184.281
		C1038.134,732.708,1036.243,752.939,1032.463,772.847z"/>
	<path fill="none" d="M611.222,935.284c-16.127-16.126-24.193-35.513-24.193-58.155v-41.185L389.354,638.268
		c-2.071,12.348-3.962,24.695-5.672,37.042c-1.708,12.388-2.573,24.734-2.573,37.081c0,83.052,27.288,155.81,81.846,218.269
		c54.577,62.461,123.392,98.859,206.444,109.155v-80.316C646.755,959.498,627.348,951.412,611.222,935.284z"/>
	<path fill="#8DC73F" stroke="#010101" stroke-width="3" stroke-miterlimit="10" d="M921.633,892.819
		c-14.399-10.657-30.525-15.967-48.386-15.967h-41.186V753.301c0-11.664-3.94-21.438-11.824-29.358
		c-7.882-7.887-17.697-11.828-29.355-11.828H543.774v-82.365h82.368c11.664,0,21.458-3.944,29.34-11.827
		c7.902-7.922,11.845-17.695,11.845-29.358v-82.369h82.369c22.643,0,42.066-8.084,58.156-24.212
		c16.167-16.127,24.209-35.514,24.209-58.157v-16.489c-336.033-90.856-444.779,230.655-444.779,230.655l197.675,197.678v41.184
		c0,22.642,8.066,42.029,24.193,58.155c16.126,16.129,35.533,24.215,58.176,24.215v80.316
		c217.266,6.521,284.188-105.012,284.188-105.012C946.003,917.353,936.069,903.437,921.633,892.819z"/>
</g>
<path fill="none" stroke="#010101" stroke-width="3" stroke-miterlimit="10" d="M1110.744,900.396
	c4.285,13.085,6.81,26.136,7.587,39.136c0.772,12.979-0.203,25.927-2.936,38.822c-8.716,41.13-30.397,73.085-65.064,95.9
	c-34.653,22.8-72.546,29.842-113.676,21.127l-3.22-0.683l23.216,35.701l-31.245,20.327l-58.046-89.271l89.264-58.057l20.317,31.252
	l-35.701,23.216l3.22,0.683c30.69,6.504,59.08,1.206,85.146-15.877c26.067-17.083,42.389-41.119,48.959-72.122
	c1.691-7.987,2.433-16.003,2.215-24.073c-0.22-8.052-1.384-16.172-3.512-24.311L1110.744,900.396z"/>
<path fill="none" stroke="#010101" stroke-width="3" stroke-miterlimit="10" d="M519.761,234.907l72.024,92.491l-92.492,72.025
	l-25.206-32.379l36.989-28.803l-3.595-0.448c-34.261-4.262-64.926,4.2-91.909,25.376c-26.985,21.175-42.65,49.063-46.958,83.686
	c-1.109,8.917-1.171,17.779-0.169,26.612c0.984,8.811,3.029,17.61,6.104,26.333l-34.684,27.009
	c-5.912-13.949-9.892-28.028-11.96-42.214c-2.072-14.165-2.211-28.458-0.42-42.856c5.714-45.931,26.52-83.007,62.399-111.275
	c35.88-28.246,76.782-39.513,122.711-33.8l3.595,0.446l-28.803-36.987L519.761,234.907z"/>
</svg>
