<?xml version="1.0" encoding="utf-8"?>
<!-- Generator: Adobe Illustrator 16.0.0, SVG Export Plug-In . SVG Version: 6.00 Build 0)  -->
<!DOCTYPE svg PUBLIC "-//W3C//DTD SVG 1.1//EN" "http://www.w3.org/Graphics/SVG/1.1/DTD/svg11.dtd">
<svg version="1.1" id="Layer_1" xmlns="http://www.w3.org/2000/svg" xmlns:xlink="http://www.w3.org/1999/xlink" x="0px" y="0px"
	 width="1417.32px" height="1417.32px" viewBox="0 0 1417.32 1417.32" enable-background="new 0 0 1417.32 1417.32"
	 xml:space="preserve">
<path fill="none" stroke="#010101" stroke-width="3" stroke-miterlimit="10" d="M357.366,867.325l117.742,185.484l182.258-117.742
	c0,0,129.033,51.612,258.064-4.839c129.033-56.451,182.258-116.129,151.613-166.129c0,0,8.064-17.742-62.902,19.354
	c0,0-227.42,102.437-343.549,52.831c0,0,69.356,31.863,130.645,0c0,0,53.609-47.992-74.809-35.089l-83.255-20.968
	c0,0-51.614-25.807-82.259,3.226S357.366,867.325,357.366,867.325z"/>
<g>
	<path fill="#A0CC3B" stroke="#000000" stroke-width="3" stroke-miterlimit="10" d="M666.838,469.748
		c0,0-97.434,350.65,197.325,268.804C864.163,738.552,1008.761,592.544,666.838,469.748z"/>
	<path fill="none" stroke="#010101" stroke-width="3" stroke-miterlimit="10" d="M864.163,738.552
		c4.387,25.479,46.831,39.398,94.9,31.124"/>
	<path fill="none" stroke="#010101" stroke-width="3" stroke-miterlimit="10" d="M729.484,576.941
		c15.43,89.615,74.33,154.139,131.691,144.263"/>
</g>
<text transform="matrix(1 0 0 1 513.0308 381.6177)" font-family="'MalgunGothicBold'" font-size="108.4733">+ 1,000</text>
</svg>
