<?xml version="1.0" encoding="utf-8"?>
<!-- Generator: Adobe Illustrator 16.0.0, SVG Export Plug-In . SVG Version: 6.00 Build 0)  -->
<!DOCTYPE svg PUBLIC "-//W3C//DTD SVG 1.1//EN" "http://www.w3.org/Graphics/SVG/1.1/DTD/svg11.dtd">
<svg version="1.1" id="Layer_1" xmlns="http://www.w3.org/2000/svg" xmlns:xlink="http://www.w3.org/1999/xlink" x="0px" y="0px"
	 width="1417.32px" height="1417.32px" viewBox="0 0 1417.32 1417.32" enable-background="new 0 0 1417.32 1417.32"
	 xml:space="preserve">
<g>
	<g>
		<path fill="#8BC63F" stroke="#000000" stroke-width="3" stroke-miterlimit="10" d="M1344.935,344.219
			c0,0,160.293,393.4-224.41,401.416C1120.524,745.635,880.084,518.257,1344.935,344.219z"/>
		<path fill="#8BC63F" stroke="#000000" stroke-width="3" stroke-miterlimit="10" d="M1120.524,745.635
			c0,0,93.929-69.608,140.842-228.3"/>
	</g>
	<g>
		<path fill="#68BD45" stroke="#000000" stroke-width="3" stroke-miterlimit="10" d="M72.386,578.788
			c0,0-160.293,393.401,224.411,401.416C296.797,980.203,537.236,752.825,72.386,578.788z"/>
		<path fill="none" stroke="#000000" stroke-width="3" stroke-miterlimit="10" d="M296.797,980.203c0,0-93.929-69.608-140.843-228.3
			"/>
	</g>
	<g>
		<polygon fill="#FFFFFF" stroke="#000000" stroke-width="3" stroke-miterlimit="10" points="526.563,1068.025 279.53,973.062 
			279.53,564.702 526.563,659.666 		"/>
		<polygon fill="#FFFFFF" stroke="#000000" stroke-width="3" stroke-miterlimit="10" points="1240.771,1010.889 526.563,1068.025 
			526.563,659.666 1240.771,602.528 		"/>
		<polygon fill="#FFFFFF" stroke="#000000" stroke-width="3" stroke-miterlimit="10" points="1240.771,602.528 526.563,659.666 
			281.971,563.5 996.18,506.362 		"/>
		<polygon fill="#FFFFFF" stroke="#000000" stroke-width="3" stroke-miterlimit="10" points="506.9,650.234 464.888,635.109 
			464.888,583.014 506.9,598.139 		"/>
		<polygon fill="#FFFFFF" stroke="#000000" stroke-width="3" stroke-miterlimit="10" points="419.011,614.943 336.465,583.186 
			336.465,531.091 419.011,562.848 		"/>
		<polygon fill="#FFFFFF" stroke="#000000" stroke-width="3" stroke-miterlimit="10" points="526.563,658.534 506.9,650.234 
			506.9,598.139 526.563,593.936 		"/>
		<polygon fill="#FFFFFF" stroke="#000000" stroke-width="3" stroke-miterlimit="10" points="438.925,625.097 419.263,616.797 
			419.263,563.66 438.925,561.541 		"/>
		<polygon fill="#FFFFFF" stroke="#000000" stroke-width="3" stroke-miterlimit="10" points="421.095,561.806 341.548,530.049 
			354.661,528.046 435.799,559.457 		"/>
		<polygon fill="#FFFFFF" stroke="#000000" stroke-width="3" stroke-miterlimit="10" points="509.12,597.535 467.89,580.824 
			481.353,577.591 523.824,593.102 		"/>
		<polygon fill="#FFFFFF" stroke="#000000" stroke-width="3" stroke-miterlimit="10" points="336.465,992.707 281.971,971.006 
			281.971,668.052 336.465,689.753 		"/>
		<polygon fill="#FFFFFF" stroke="#000000" stroke-width="3" stroke-miterlimit="10" points="526.563,1065.579 419.263,1028.712 
			419.263,725.758 526.563,762.625 		"/>
		<polygon fill="#FFFFFF" stroke="#000000" stroke-width="3" stroke-miterlimit="10" points="633.862,1057.564 526.563,1067.182 
			526.563,764.227 633.862,754.609 		"/>
		<polygon fill="#FFFFFF" stroke="#000000" stroke-width="3" stroke-miterlimit="10" points="409.274,736.753 346.202,712.558 
			346.202,698.131 409.274,722.326 		"/>
		<polygon fill="#FFFFFF" stroke="#000000" stroke-width="3" stroke-miterlimit="10" points="409.274,1008.853 346.202,984.656 
			346.202,970.229 409.274,994.426 		"/>
		<polygon fill="#FFFFFF" stroke="#000000" stroke-width="3" stroke-miterlimit="10" points="409.274,866.607 346.202,842.412 
			346.202,827.986 409.274,852.182 		"/>
		<polygon fill="#FFFFFF" stroke="#000000" stroke-width="3" stroke-miterlimit="10" points="761.371,788.191 677.491,796.286 
			677.491,754.609 761.371,746.514 		"/>
		<polygon fill="#FFFFFF" stroke="#000000" stroke-width="3" stroke-miterlimit="10" points="913.649,771.399 829.77,779.495 
			829.77,737.818 913.649,729.724 		"/>
		<polygon fill="#FFFFFF" stroke="#000000" stroke-width="3" stroke-miterlimit="10" points="1065.929,754.609 982.047,762.704 
			982.047,721.028 1065.929,712.933 		"/>
		<polygon fill="#FFFFFF" stroke="#000000" stroke-width="3" stroke-miterlimit="10" points="1218.208,737.818 1134.326,745.914 
			1134.326,704.236 1218.208,696.142 		"/>
		<polygon fill="#FFFFFF" stroke="#000000" stroke-width="3" stroke-miterlimit="10" points="761.371,846.659 677.491,854.754 
			677.491,813.078 761.371,804.982 		"/>
		<polygon fill="#FFFFFF" stroke="#000000" stroke-width="3" stroke-miterlimit="10" points="913.649,829.868 829.77,837.964 
			829.77,796.287 913.649,788.192 		"/>
		<polygon fill="#FFFFFF" stroke="#000000" stroke-width="3" stroke-miterlimit="10" points="1065.929,813.078 982.047,821.173 
			982.047,779.496 1065.929,771.4 		"/>
		<polygon fill="#FFFFFF" stroke="#000000" stroke-width="3" stroke-miterlimit="10" points="1218.208,796.286 1134.326,804.382 
			1134.326,762.704 1218.208,754.609 		"/>
		<polygon fill="#FFFFFF" stroke="#000000" stroke-width="3" stroke-miterlimit="10" points="761.371,905.128 677.491,913.223 
			677.491,871.547 761.371,863.451 		"/>
		<polygon fill="#FFFFFF" stroke="#000000" stroke-width="3" stroke-miterlimit="10" points="913.649,888.337 829.77,896.433 
			829.77,854.755 913.649,846.66 		"/>
		<polygon fill="#FFFFFF" stroke="#000000" stroke-width="3" stroke-miterlimit="10" points="1065.929,871.546 982.047,879.641 
			982.047,837.964 1065.929,829.868 		"/>
		<polygon fill="#FFFFFF" stroke="#000000" stroke-width="3" stroke-miterlimit="10" points="1218.208,854.754 1134.326,862.85 
			1134.326,821.173 1218.208,813.078 		"/>
		<polygon fill="#FFFFFF" stroke="#000000" stroke-width="3" stroke-miterlimit="10" points="761.371,963.597 677.491,971.691 
			677.491,930.016 761.371,921.921 		"/>
		<polygon fill="#FFFFFF" stroke="#000000" stroke-width="3" stroke-miterlimit="10" points="913.649,946.807 829.77,954.901 
			829.77,913.223 913.649,905.128 		"/>
		<polygon fill="#FFFFFF" stroke="#000000" stroke-width="3" stroke-miterlimit="10" points="1065.929,930.014 982.047,938.108 
			982.047,896.433 1065.929,888.337 		"/>
		<polygon fill="#FFFFFF" stroke="#000000" stroke-width="3" stroke-miterlimit="10" points="1218.208,913.223 1134.326,921.318 
			1134.326,879.642 1218.208,871.547 		"/>
		<polygon fill="#FFFFFF" stroke="#000000" stroke-width="3" stroke-miterlimit="10" points="761.371,1022.065 677.491,1030.16 
			677.491,988.484 761.371,980.39 		"/>
		<polygon fill="#FFFFFF" stroke="#000000" stroke-width="3" stroke-miterlimit="10" points="913.649,1005.275 829.77,1013.37 
			829.77,971.691 913.649,963.597 		"/>
		<polygon fill="#FFFFFF" stroke="#000000" stroke-width="3" stroke-miterlimit="10" points="1065.929,988.482 982.047,996.577 
			982.047,954.901 1065.929,946.807 		"/>
		<polygon fill="#FFFFFF" stroke="#000000" stroke-width="3" stroke-miterlimit="10" points="1218.208,971.691 1134.326,979.787 
			1134.326,938.11 1218.208,930.016 		"/>
		<path fill="#FFFFFF" stroke="#000000" stroke-width="3" stroke-miterlimit="10" d="M336.465,963.597"/>
	</g>
	
		<image overflow="visible" width="188" height="33" xlink:href="../../../pf3-hnpaper/img/logo.png"  transform="matrix(1.0379 -0.0908 0.0908 1.0379 543.8608 689.541)">
	</image>
</g>
</svg>
