<?xml version="1.0" encoding="utf-8"?>
<!-- Generator: Adobe Illustrator 16.0.0, SVG Export Plug-In . SVG Version: 6.00 Build 0)  -->
<!DOCTYPE svg PUBLIC "-//W3C//DTD SVG 1.1//EN" "http://www.w3.org/Graphics/SVG/1.1/DTD/svg11.dtd">
<svg version="1.1" id="Layer_1" xmlns="http://www.w3.org/2000/svg" xmlns:xlink="http://www.w3.org/1999/xlink" x="0px" y="0px"
	 width="2267.72px" height="2267.72px" viewBox="0 0 2267.72 2267.72" enable-background="new 0 0 2267.72 2267.72"
	 xml:space="preserve">
<g>
	<g>
		<path fill="#2F57A7" d="M682.2,1081.556v120.893h61.342v-120.893h58.656v301.787h-58.656v-126.267H682.2v126.267h-58.656v-301.787
			H682.2z"/>
		<path fill="#2F57A7" d="M854.138,1086.034c17.91-4.03,41.193-5.821,66.715-5.821c28.208,0,55.522,3.582,76.566,21.493
			c16.119,13.432,22.835,33.582,22.835,54.626c0,26.864-13.88,52.834-43.88,65.819v1.79c34.924,9.852,53.73,38.955,53.73,72.09
			c0,25.073-8.06,44.326-22.387,59.103c-17.911,19.702-48.358,30.448-98.955,30.448c-22.388,0-41.193-1.344-54.626-3.135V1086.034z
			 M912.794,1205.584h12.537c21.044,0,37.163-17.91,37.163-42.536c0-21.94-10.298-38.955-34.477-38.955
			c-6.269,0-11.642,0.447-15.224,1.791V1205.584z M912.794,1339.463c3.582,0.895,7.612,0.895,12.985,0.895
			c23.731,0,43.432-14.327,43.432-45.223c0-30-20.596-45.67-43.88-46.118h-12.537V1339.463z"/>
		<path fill="#FDB92D" d="M1141.59,1086.034c16.566-3.582,38.955-5.821,61.343-5.821c34.925,0,62.238,4.925,81.938,23.283
			c17.91,15.671,25.97,40.746,25.97,66.268c0,32.686-9.851,55.521-25.522,72.537c-18.805,19.7-49.252,28.656-73.431,28.656
			c-4.029,0-8.06,0-11.642,0v112.386h-58.656V1086.034z M1200.246,1223.047c2.687,0.895,5.82,0.895,9.402,0.895
			c29.553,0,42.984-21.043,42.984-49.252c0-26.418-10.745-47.014-38.059-47.014c-5.373,0-10.746,0.895-14.328,2.238V1223.047z"/>
		<path fill="#FDB92D" d="M1375.314,1314.389l-13.433,68.954h-56.864l65.372-301.787h70.297l58.656,301.787h-56.865l-12.984-68.954
			H1375.314z M1424.12,1268.718l-9.851-63.134c-3.135-18.357-7.165-48.357-9.852-68.506h-1.343
			c-3.134,20.148-7.611,51.491-10.745,68.953l-11.195,62.687H1424.12z"/>
		<path fill="#FDB92D" d="M1532.475,1086.034c16.566-3.582,38.955-5.821,61.342-5.821c34.926,0,62.238,4.925,81.939,23.283
			c17.91,15.671,25.97,40.746,25.97,66.268c0,32.686-9.851,55.521-25.522,72.537c-18.805,19.7-49.253,28.656-73.431,28.656
			c-4.03,0-8.06,0-11.643,0v112.386h-58.655V1086.034z M1591.13,1223.047c2.687,0.895,5.821,0.895,9.403,0.895
			c29.552,0,42.984-21.043,42.984-49.252c0-26.418-10.746-47.014-38.059-47.014c-5.373,0-10.746,0.895-14.329,2.238V1223.047z"/>
		<path fill="#FDB92D" d="M1864.703,1250.808h-68.955v81.491h77.909v51.044h-136.565v-301.787h131.192v51.044h-72.536v69.402h68.955
			V1250.808z"/>
		<path fill="#FDB92D" d="M1913.506,1086.034c18.357-3.582,41.642-5.821,64.029-5.821c32.238,0,60.895,4.478,80.596,22.388
			c18.357,16.566,23.73,36.716,23.73,62.686c0,32.239-15.671,61.343-46.566,75.671v0.895c20.597,8.061,30.896,27.313,36.717,59.553
			c5.82,33.582,13.88,70.745,19.253,81.938h-61.343c-3.581-8.507-10.298-38.955-14.775-72.089
			c-5.373-37.61-14.775-48.357-34.478-48.357h-8.507v120.446h-58.656V1086.034z M1972.162,1217.674h10.299
			c25.521,0,40.297-20.597,40.297-47.015c0-25.522-10.297-43.88-36.716-44.775c-4.925,0-10.746,0.448-13.88,1.792V1217.674z"/>
	</g>
	<polygon fill="#6FBE44" points="518.873,1231.461 435.356,1231.461 371.887,1231.461 301.73,1231.461 435.356,1031.021 
		371.887,1031.021 477.114,880.691 556.435,993.991 638.271,993.991 477.114,763.768 243.268,1097.834 310.082,1097.834 
		176.455,1298.273 411.965,1298.273 411.965,1431.9 542.264,1431.9 542.264,1298.273 556.435,1298.273 556.435,1231.461 	"/>
</g>
</svg>
