<?xml version="1.0" encoding="utf-8"?>
<!-- Generator: Adobe Illustrator 16.0.0, SVG Export Plug-In . SVG Version: 6.00 Build 0)  -->
<!DOCTYPE svg PUBLIC "-//W3C//DTD SVG 1.1//EN" "http://www.w3.org/Graphics/SVG/1.1/DTD/svg11.dtd">
<svg version="1.1" id="Layer_1" xmlns="http://www.w3.org/2000/svg" xmlns:xlink="http://www.w3.org/1999/xlink" x="0px" y="0px"
	 width="2267.72px" height="2267.72px" viewBox="0 0 2267.72 2267.72" enable-background="new 0 0 2267.72 2267.72"
	 xml:space="preserve">
<path fill="#6CBE45" d="M319.154,1035.05v214.536h108.857V1035.05h104.09v535.545h-104.09v-224.072H319.154v224.072H215.064V1035.05
	H319.154z"/>
<path fill="none" d="M716.106,1174.131l56.876,22.02c1.452-6.441,2.227-13.287,2.227-20.459c0-38.935-18.272-69.128-61.181-69.128
	c-11.123,0-20.659,0.793-27.015,3.178v141.434h22.248c2.759,0,5.47-0.178,8.125-0.517l-1.281-0.497V1174.131z"/>
<path fill="none" d="M709.262,1328.25h-22.248v160.504c6.355,1.588,13.506,1.588,23.042,1.588c15.576,0,30.169-3.482,42.38-10.639
	v-12.088h15.069c12.168-13.17,19.624-32.211,19.624-57.523C787.129,1356.853,750.581,1329.047,709.262,1328.25z"/>
<path fill="#2F57A7" d="M715.173,1490.342c-9.536,0-16.687,0-23.043-1.588V1328.25h22.248c41.319,0.797,77.868,28.603,77.868,81.842
	c0,25.313-7.456,44.354-19.624,57.523h118.613c5.941-16.545,9.075-35.107,9.075-55.936c0-58.799-33.374-110.443-95.349-127.926
	v-1.172l-82.457-31.923c-2.656,0.339-5.366,0.517-8.126,0.517H692.13v-141.434c6.356-2.385,15.892-3.178,27.015-3.178
	c42.909,0,61.181,30.193,61.181,69.128c0,7.172-0.774,14.018-2.227,20.459l86.784,33.599c12.114-19.97,17.945-42.783,17.945-65.974
	c0-37.347-11.918-73.104-40.522-96.939c-37.345-31.784-85.816-38.141-135.873-38.141c-45.292,0-86.609,3.178-118.393,10.329v526.006
	c23.837,3.18,57.209,5.564,96.938,5.564c27.394,0,51.453-1.779,72.574-5.238v-85.654
	C745.342,1486.859,730.748,1490.342,715.173,1490.342z"/>
<polyline fill="#2F57A7" points="756.338,1183.406 821.071,1267.576 900.31,1199.897 "/>
<polyline fill="#6CBE45" points="345.823,1019.878 273.333,942.291 200.935,1017.242 "/>
<polyline fill="#6CBE45" points="371.368,1086.994 273.528,970.398 175.39,1083.428 "/>
<polyline fill="#2F57A7" points="756.338,1448.256 821.071,1532.426 900.31,1464.746 "/>
<g>
	<path fill="#FFD037" d="M1009.225,1149.275c20.344-4.399,47.836-7.148,75.33-7.148c42.887,0,76.429,6.05,100.622,28.592
		c21.993,19.246,31.892,50.037,31.892,81.379c0,40.137-12.097,68.178-31.343,89.074c-23.094,24.193-60.483,35.19-90.175,35.19
		c-4.948,0-9.897,0-14.297,0v138.012h-72.029V1149.275z M1081.254,1317.527c3.301,1.102,7.149,1.102,11.547,1.102
		c36.291,0,52.785-25.843,52.785-60.485c0-32.44-13.195-57.732-46.736-57.732c-6.598,0-13.196,1.099-17.596,2.749V1317.527z"/>
	<path fill="#FFD037" d="M1296.251,1429.699l-16.496,84.675h-69.829l80.277-370.597h86.325l72.031,370.597h-69.832l-15.944-84.675
		H1296.251z M1356.184,1373.613l-12.097-77.529c-3.848-22.543-8.797-59.384-12.096-84.128h-1.648
		c-3.851,24.744-9.35,63.235-13.197,84.679l-13.747,76.979H1356.184z"/>
	<path fill="#FFD037" d="M1489.253,1149.275c20.345-4.399,47.837-7.148,75.33-7.148c42.887,0,76.429,6.05,100.621,28.592
		c21.994,19.246,31.893,50.037,31.893,81.379c0,40.137-12.097,68.178-31.343,89.074c-23.094,24.193-60.483,35.19-90.175,35.19
		c-4.947,0-9.896,0-14.297,0v138.012h-72.029V1149.275z M1561.282,1317.527c3.301,1.102,7.149,1.102,11.547,1.102
		c36.291,0,52.785-25.843,52.785-60.485c0-32.44-13.195-57.732-46.736-57.732c-6.598,0-13.195,1.099-17.596,2.749V1317.527z"/>
	<path fill="#FFD037" d="M1897.242,1351.618h-84.677v100.071h95.674v62.685h-167.703v-370.597h161.105v62.68h-89.076v85.23h84.677
		V1351.618z"/>
	<path fill="#FFD037" d="M1957.184,1149.275c22.544-4.399,51.135-7.148,78.628-7.148c39.589,0,74.779,5.498,98.972,27.493
		c22.544,20.345,29.142,45.085,29.142,76.979c0,39.59-19.243,75.327-57.183,92.923v1.1c25.294,9.898,37.939,33.543,45.087,73.129
		c7.148,41.24,17.045,86.877,23.643,100.624h-75.327c-4.399-10.446-12.647-47.839-18.146-88.527
		c-6.598-46.185-18.145-59.383-42.338-59.383h-10.447v147.91h-72.029V1149.275z M2029.213,1310.93h12.647
		c31.34,0,49.486-25.293,49.486-57.733c0-31.342-12.647-53.884-45.089-54.983c-6.048,0-13.195,0.548-17.045,2.198V1310.93z"/>
</g>
</svg>
