<?xml version="1.0" encoding="utf-8"?>
<!-- Generator: Adobe Illustrator 16.0.0, SVG Export Plug-In . SVG Version: 6.00 Build 0)  -->
<!DOCTYPE svg PUBLIC "-//W3C//DTD SVG 1.1//EN" "http://www.w3.org/Graphics/SVG/1.1/DTD/svg11.dtd">
<svg version="1.1" id="Layer_1" xmlns="http://www.w3.org/2000/svg" xmlns:xlink="http://www.w3.org/1999/xlink" x="0px" y="0px"
	 width="1417.32px" height="1417.32px" viewBox="0 0 1417.32 1417.32" enable-background="new 0 0 1417.32 1417.32"
	 xml:space="preserve">
<g>
	<path fill="#4EB748" d="M1104.771,861.343v-31.229h93.684v-62.456h-31.228c-21.599,0-40.011-7.608-55.236-22.841
		c-15.226-15.218-22.834-33.623-22.834-55.229c0-15.614,4.292-29.993,12.886-43.136c8.584-13.145,20.165-22.705,34.734-28.683
		c2.349-19.518,10.864-35.848,25.57-48.991c14.707-13.145,31.945-19.716,51.722-19.716c19.777,0,37.022,6.572,51.722,19.716
		c14.699,13.144,23.224,29.474,25.571,48.991c14.562,5.978,26.15,15.538,34.735,28.683c8.584,13.144,12.884,27.522,12.884,43.136
		c0,21.606-7.608,40.011-22.841,55.229c-15.218,15.232-33.637,22.841-55.229,22.841h-31.229v62.456h93.684v31.229H1104.771z
		 M1167.227,736.431h93.685c13.021,0,24.061-4.56,33.18-13.662c9.118-9.104,13.662-20.174,13.662-33.18
		c0-9.363-2.668-17.962-8.005-25.769c-5.322-7.807-12.29-13.525-20.876-17.17l-16.406-7.028l-2.332-17.948
		c-1.571-11.71-6.694-21.545-15.417-29.474c-8.722-7.945-18.938-11.909-30.648-11.909c-11.71,0-21.927,3.964-30.641,11.909
		c-8.722,7.929-13.861,17.764-15.423,29.474l-2.342,17.948l-16.391,7.028c-8.592,3.645-15.554,9.363-20.883,17.17
		c-5.337,7.807-8.006,16.406-8.006,25.769c0,13.006,4.552,24.077,13.663,33.18C1143.157,731.871,1154.212,736.431,1167.227,736.431z
		"/>
</g>
<g>
	<path fill="#9ACC5F" d="M244.407,863.56V654.138c-24.017-6.341-43.216-19.609-57.605-39.791
		c-14.383-20.196-21.574-42.697-21.574-67.503h31.671c0,21.913,7.06,40.579,21.179,56.013c14.12,15.45,32.136,23.166,54.042,23.166
		h39.59c7.917,0,15.309,1.454,22.176,4.362c6.866,2.891,13.052,7.113,18.604,12.665l71.648,71.648l-22.161,22.177l-62.555-62.555
		v189.24H307.75v-95.014h-31.672v95.014H244.407z M291.914,610.187c-8.707,0-16.168-3.108-22.369-9.309
		c-6.202-6.202-9.302-13.655-9.302-22.362c0-8.707,3.1-16.161,9.302-22.362c6.201-6.202,13.663-9.31,22.369-9.31
		c8.707,0,16.176,3.108,22.361,9.31c6.218,6.201,9.311,13.655,9.311,22.362c0,8.707-3.093,16.161-9.311,22.362
		C308.09,607.079,300.621,610.187,291.914,610.187z"/>
</g>
<path fill="#FCF16A" d="M1073.479,968.193c-7.493,28.142-18.064,54.192-31.676,78.14c-13.595,23.908-30.257,45.739-49.973,65.456
	c-62.883,62.881-138.178,94.542-225.956,95.021c-87.739,0.468-163.049-30.737-225.932-93.62l-4.921-4.921l-0.002,90.074
	l-78.841,0.012l0.015-225.227l225.227-0.015l-0.014,78.841l-90.074,0.004l4.922,4.92c46.92,46.922,103.371,70.264,169.289,70.03
	c65.92-0.229,122.575-24.03,169.979-71.431c12.207-12.209,22.766-25.572,31.688-40.132c8.893-14.531,16.192-30.272,21.8-47.153
	H1073.479z"/>
<path fill="#FCF16A" d="M1060.761,218.509v225.243H835.518l0.014-78.845h90.074l-4.922-4.922
	c-46.905-46.906-103.381-70.278-169.289-70.032c-65.906,0.249-122.573,24.03-169.976,71.432
	c-12.209,12.209-22.766,25.572-31.677,40.146c-8.906,14.515-16.192,30.274-21.828,47.125h-84.466
	c7.504-28.127,18.09-54.164,31.703-78.113c13.58-23.921,30.24-45.751,49.958-65.467c62.88-62.88,138.193-94.527,225.956-95.022
	c87.738-0.469,163.048,30.738,225.931,93.622l4.922,4.92v-90.074L1060.761,218.509z"/>
<g>
	<path fill="#3D5AA9" stroke="#3D5AA9" stroke-width="7" stroke-miterlimit="10" d="M489.058,658.463v39.054h45.147v-39.054h12.187
		v93.339h-12.187v-43.761h-45.147v43.761H477.01v-93.339H489.058z"/>
	<path fill="#3D5AA9" stroke="#3D5AA9" stroke-width="7" stroke-miterlimit="10" d="M567.298,659.71
		c5.262-1.108,13.572-1.939,22.019-1.939c12.049,0,19.805,2.077,25.621,6.786c4.847,3.601,7.755,9.14,7.755,16.48
		c0,9.002-5.956,16.896-15.788,20.496v0.277c8.864,2.216,19.25,9.556,19.25,23.404c0,8.034-3.186,14.125-7.894,18.696
		c-6.509,5.956-17.034,8.723-32.267,8.723c-8.31,0-14.68-0.551-18.696-1.106V659.71z M579.347,697.932h10.94
		c12.741,0,20.219-6.647,20.219-15.649c0-10.941-8.309-15.234-20.496-15.234c-5.54,0-8.725,0.416-10.664,0.832V697.932z
		 M579.347,742.663c2.354,0.417,5.817,0.555,10.11,0.555c12.463,0,23.958-4.57,23.958-18.142c0-12.741-10.941-18.003-24.097-18.003
		h-9.971V742.663z"/>
	<path fill="#FDC06B" stroke="#FDC06A" stroke-width="7" stroke-miterlimit="10" d="M671.71,659.571
		c5.815-0.969,13.434-1.8,23.126-1.8c11.91,0,20.635,2.77,26.175,7.755c5.125,4.432,8.171,11.218,8.171,19.527
		c0,8.448-2.492,15.095-7.201,19.942c-6.37,6.786-16.758,10.247-28.53,10.247c-3.6,0-6.923-0.137-9.693-0.829v37.39H671.71V659.571z
		 M683.759,704.58c2.632,0.692,5.954,0.968,9.972,0.968c14.541,0,23.403-7.062,23.403-19.941c0-12.326-8.724-18.281-22.019-18.281
		c-5.263,0-9.279,0.416-11.356,0.97V704.58z"/>
	<path fill="#FDC06B" stroke="#FDC06A" stroke-width="7" stroke-miterlimit="10" d="M748.846,722.445l-9.695,29.357h-12.464
		l31.712-93.339h14.542l31.852,93.339h-12.878l-9.971-29.357H748.846z M779.449,713.026l-9.139-26.866
		c-2.078-6.093-3.463-11.632-4.848-17.033h-0.276c-1.386,5.539-2.908,11.217-4.709,16.896l-9.14,27.004H779.449z"/>
	<path fill="#FDC06B" stroke="#FDC06A" stroke-width="7" stroke-miterlimit="10" d="M818.498,659.571
		c5.816-0.969,13.433-1.8,23.127-1.8c11.91,0,20.636,2.77,26.176,7.755c5.124,4.432,8.169,11.218,8.169,19.527
		c0,8.448-2.492,15.095-7.201,19.942c-6.37,6.786-16.757,10.247-28.527,10.247c-3.601,0-6.925-0.137-9.694-0.829v37.39h-12.049
		V659.571z M830.547,704.58c2.63,0.692,5.954,0.968,9.97,0.968c14.543,0,23.405-7.062,23.405-19.941
		c0-12.326-8.725-18.281-22.02-18.281c-5.262,0-9.278,0.416-11.355,0.97V704.58z"/>
	<path fill="#FDC06B" stroke="#FDC06A" stroke-width="7" stroke-miterlimit="10" d="M940.503,708.042H904.22v33.652h40.438v10.108
		H892.17v-93.339h50.409v10.109H904.22v29.498h36.283V708.042z"/>
	<path fill="#FDC06B" stroke="#FDC06A" stroke-width="7" stroke-miterlimit="10" d="M960.301,659.71
		c6.094-1.247,14.818-1.939,23.128-1.939c12.878,0,21.188,2.354,27.004,7.617c4.71,4.155,7.34,10.524,7.34,17.726
		c0,12.326-7.754,20.496-17.587,23.82v0.415c7.202,2.492,11.495,9.141,13.711,18.834c3.046,13.02,5.263,22.02,7.2,25.62h-12.463
		c-1.523-2.63-3.601-10.663-6.232-22.296c-2.771-12.879-7.755-17.726-18.696-18.141H972.35v40.437h-12.049V659.71z M972.35,702.226
		h12.325c12.88,0,21.05-7.063,21.05-17.727c0-12.048-8.724-17.311-21.465-17.45c-5.816,0-9.972,0.554-11.91,1.108V702.226z"/>
</g>
</svg>
