<svg xmlns="http://www.w3.org/2000/svg" width="46" height="46">
    <style>
    .insta{
        fill: white;
    }
    </style>
    
    <path class="insta" fill-rule="evenodd" d="M45.847 32.449c-.315 6.839-3.528 10.647-7.787 12.3-3.131 1.214-6.188 1.208-15.046 1.208-8.632 0-14.675.58-19.113-3.856C-.453 37.744.046 31.922.046 22.978c0-8.741-.565-14.7 3.855-19.123C6.547 1.209 9.828.309 13.547.136c4.233-.189 14.708-.198 18.937 0 8.652.397 12.983 5.293 13.363 13.367.186 4.234.198 14.712 0 18.946zM23.214 11.178c-6.517-.11-11.883 5.086-11.993 11.6-.109 6.519 5.083 11.887 11.595 11.998 6.517.11 11.883-5.087 11.993-11.6.109-6.521-5.084-11.889-11.595-11.998zm12.064-3.223a2.755 2.755 0 1 0 0 5.512 2.755 2.755 0 0 0 0-5.512zM22.886 30.636a7.655 7.655 0 0 1-7.525-7.788 7.654 7.654 0 0 1 7.782-7.529 7.657 7.657 0 0 1 7.527 7.788 7.656 7.656 0 0 1-7.784 7.529z"/>
</svg>
