<svg xmlns="http://www.w3.org/2000/svg" width="44" height="46">
        <style>
    .naver{
        fill: white;
    }
    </style>

    <path class="naver" fill-rule="evenodd" d="M35.185.009H8.814C3.945.009-.004 4.136-.004 9.227v27.561c0 5.091 3.949 9.218 8.818 9.218h26.371c4.87 0 8.819-4.127 8.819-9.218V9.227c0-5.091-3.949-9.218-8.819-9.218zm-25.15 11.816V7.012c0-.954.74-1.727 1.656-1.727.914 0 1.655.773 1.655 1.727v4.813c0 4.988 3.883 9.046 8.652 9.046 4.774 0 8.657-4.058 8.657-9.046V7.163c0-.955.742-1.728 1.653-1.728.915 0 1.656.773 1.656 1.728v4.662c0 6.895-5.367 12.504-11.966 12.504-6.595 0-11.963-5.609-11.963-12.504zm28.157 27.823h-3.623l-4.371-6.562v6.562h-3.796v-12.26h3.625l4.371 6.562v-6.562h3.794v12.26z"/>
</svg>
