<?xml version="1.0" encoding="utf-8"?>
<!-- Generator: Adobe Illustrator 16.0.0, SVG Export Plug-In . SVG Version: 6.00 Build 0)  -->
<!DOCTYPE svg PUBLIC "-//W3C//DTD SVG 1.1//EN" "http://www.w3.org/Graphics/SVG/1.1/DTD/svg11.dtd">
<svg version="1.1" id="Layer_1" xmlns="http://www.w3.org/2000/svg" xmlns:xlink="http://www.w3.org/1999/xlink" x="0px" y="0px"
	 width="1417.32px" height="1417.32px" viewBox="0 0 1417.32 1417.32" enable-background="new 0 0 1417.32 1417.32"
	 xml:space="preserve">
<g>
	<path fill="#010101" d="M270.17,1249.556c-23.743,0-44.092-8.476-61.005-25.386c-16.911-16.913-25.366-37.241-25.366-60.985
		V558.589c0-23.743,8.455-44.072,25.366-60.982c16.913-16.914,37.262-25.389,61.005-25.389h690.966
		c23.743,0,44.115,8.476,60.984,25.389c16.952,16.91,25.387,37.239,25.387,60.982v604.596c0,23.744-8.435,44.072-25.387,60.985
		c-16.869,16.91-37.241,25.386-60.984,25.386H270.17z M270.17,1163.185h690.966V558.589H270.17V1163.185z M356.541,1076.813h518.225
		v-86.37H356.541V1076.813z M356.541,904.072h172.742V644.959H356.541V904.072z M615.654,904.072h259.111v-86.371H615.654V904.072z
		 M615.654,731.33h259.111v-86.371H615.654V731.33z M270.17,1163.185V558.589V1163.185z"/>
</g>
<g>
	<path fill="#010101" d="M993.678,597.878c-32.266,0-62.758-6.201-91.484-18.581c-28.728-12.405-53.812-29.327-75.255-50.77
		c-21.44-21.441-38.364-46.525-50.756-75.253c-12.393-28.728-18.595-59.23-18.595-91.484c0-32.67,6.202-63.243,18.595-91.786
		c12.392-28.52,29.315-53.511,50.756-74.954c21.443-21.441,46.527-38.364,75.255-50.768c28.727-12.381,59.219-18.583,91.484-18.583
		c32.646,0,63.265,6.202,91.784,18.583c28.52,12.404,53.513,29.327,74.954,50.768c21.44,21.443,38.364,46.434,50.769,74.954
		c12.38,28.543,18.582,59.115,18.582,91.786c0,32.254-6.202,62.756-18.582,91.484c-12.404,28.728-29.328,53.812-50.769,75.253
		c-21.441,21.442-46.435,38.364-74.954,50.77C1056.942,591.677,1026.324,597.878,993.678,597.878z M993.678,549.485
		c10.225-14.179,19.079-28.934,26.561-44.267c7.469-15.354,13.579-31.679,18.306-48.993h-89.722
		c4.716,17.314,10.813,33.638,18.296,48.993C974.599,520.551,983.452,535.306,993.678,549.485z M932.292,540.033
		c-7.078-12.98-13.28-26.467-18.595-40.417c-5.302-13.971-9.729-28.427-13.28-43.39h-69.639
		c11.412,19.667,25.672,36.797,42.791,51.345C890.688,522.142,910.262,532.955,932.292,540.033z M1055.052,540.033
		c22.041-7.078,41.615-17.891,58.745-32.462c17.107-14.548,31.355-31.679,42.791-51.345h-69.65
		c-3.551,14.963-7.977,29.419-13.28,43.39C1068.332,513.566,1062.152,527.052,1055.052,540.033z M810.708,409.008h80.269
		c-1.176-7.862-2.063-15.632-2.651-23.309c-0.588-7.677-0.887-15.654-0.887-23.908c0-8.254,0.299-16.231,0.887-23.909
		c0.589-7.677,1.476-15.448,2.651-23.309h-80.269c-1.972,7.861-3.447,15.632-4.427,23.309s-1.476,15.654-1.476,23.909
		c0,8.254,0.496,16.231,1.476,23.908S808.736,401.146,810.708,409.008z M938.194,409.008h110.956
		c1.197-7.862,2.074-15.632,2.673-23.309c0.577-7.677,0.877-15.654,0.877-23.908c0-8.254-0.3-16.231-0.877-23.909
		c-0.599-7.677-1.476-15.448-2.673-23.309H938.194c-1.176,7.861-2.063,15.632-2.651,23.309s-0.887,15.654-0.887,23.909
		c0,8.254,0.299,16.231,0.887,23.908S937.019,401.146,938.194,409.008z M1096.367,409.008h80.279
		c1.983-7.862,3.459-15.632,4.427-23.309s1.476-15.654,1.476-23.908c0-8.254-0.508-16.231-1.476-23.909s-2.443-15.448-4.427-23.309
		h-80.279c1.198,7.861,2.075,15.632,2.674,23.309c0.577,7.677,0.877,15.654,0.877,23.909c0,8.254-0.3,16.231-0.877,23.908
		C1098.442,393.376,1097.565,401.146,1096.367,409.008z M1086.938,267.355h69.65c-11.436-19.668-25.684-36.797-42.791-51.345
		c-17.13-14.571-36.704-25.385-58.745-32.462c7.101,12.979,13.28,26.467,18.605,40.416
		C1078.961,237.935,1083.387,252.391,1086.938,267.355z M948.822,267.355h89.722c-4.727-17.316-10.837-33.638-18.306-48.995
		c-7.481-15.331-16.336-30.086-26.561-44.267c-10.226,14.18-19.079,28.936-26.56,44.267
		C959.636,233.717,953.538,250.039,948.822,267.355z M830.778,267.355h69.639c3.552-14.964,7.979-29.42,13.28-43.392
		c5.314-13.949,11.517-27.437,18.595-40.416c-22.03,7.077-41.604,17.891-58.723,32.462
		C856.45,230.558,842.19,247.687,830.778,267.355z"/>
</g>
</svg>
