<?xml version="1.0" encoding="utf-8"?>
<!-- Generator: Adobe Illustrator 16.0.0, SVG Export Plug-In . SVG Version: 6.00 Build 0)  -->
<!DOCTYPE svg PUBLIC "-//W3C//DTD SVG 1.1//EN" "http://www.w3.org/Graphics/SVG/1.1/DTD/svg11.dtd">
<svg version="1.1" id="Layer_1" xmlns="http://www.w3.org/2000/svg" xmlns:xlink="http://www.w3.org/1999/xlink" x="0px" y="0px"
	 width="1417.32px" height="1417.32px" viewBox="0 0 1417.32 1417.32" enable-background="new 0 0 1417.32 1417.32"
	 xml:space="preserve">
<g>
	<path fill="none" stroke="#010101" stroke-width="3" stroke-miterlimit="10" d="M583.507,1204.098V617.209
		c-67.306-17.769-121.11-54.952-161.436-111.509c-40.304-56.598-60.457-119.655-60.457-189.17h88.756
		c0,61.411,19.786,113.719,59.354,156.972c39.568,43.293,90.056,64.921,151.445,64.921h110.944c22.189,0,42.907,4.074,62.15,12.22
		c19.24,8.105,36.575,19.936,52.134,35.494l200.785,200.786l-62.103,62.149L849.778,673.767v530.331h-88.76V937.827h-88.756v266.271
		H583.507z M716.641,494.045c-24.398,0-45.31-8.713-62.688-26.092s-26.067-38.268-26.067-62.667
		c0-24.399,8.688-45.288,26.067-62.667s38.29-26.089,62.688-26.089c24.399,0,45.332,8.71,62.668,26.089
		c17.423,17.379,26.092,38.268,26.092,62.667c0,24.399-8.669,45.288-26.092,62.667C761.973,485.332,741.04,494.045,716.641,494.045z
		"/>
</g>
<g>
	<path fill="#A0CC3B" stroke="#000000" stroke-width="3" stroke-miterlimit="10" d="M670.989,609.608
		c0,0-44.281,159.359,89.676,122.164C760.665,731.772,826.382,665.417,670.989,609.608z"/>
	<path fill="none" stroke="#010101" stroke-width="3" stroke-miterlimit="10" d="M760.665,731.772
		c1.996,11.58,21.285,17.906,43.133,14.146"/>
	<path fill="none" stroke="#010101" stroke-width="3" stroke-miterlimit="10" d="M699.459,658.325
		c7.012,40.728,33.782,70.051,59.849,65.563"/>
</g>
</svg>
