<svg xmlns="http://www.w3.org/2000/svg" width="54" height="39">
    <path fill-rule="evenodd" d="M53.985 19.551c0 .381-.015 8.463-1.096 12.579l-.002.01a8.193 8.193 0 0 1-5.758 5.768l-.009.003c-4.049 1.068-18.496 1.098-20.13 1.098-1.631 0-16.048-.032-20.142-1.143a8.191 8.191 0 0 1-5.755-5.767C.006 28.006-.006 19.853-.006 19.507c0-.342.012-8.456 1.097-12.581l.002-.01c.744-2.774 3.002-5.051 5.748-5.807l.019-.005C10.909.037 25.356.006 26.989.006c1.635 0 16.091.032 20.148 1.144a8.188 8.188 0 0 1 5.749 5.763c1.123 4.117 1.102 12.203 1.099 12.638zm-18.708-.449-13.072-7.544a.392.392 0 0 0-.589.342v15.083a.393.393 0 0 0 .589.342l13.072-7.541a.394.394 0 0 0 0-.682z"/>
</svg>
